/* XPM */
static char * neurita_xpm[] = {
"32 32 165 2",
"  	c None",
". 	c #4DB3D0",
"+ 	c #76C3CD",
"@ 	c #A7DAC9",
"# 	c #A5D9C9",
"$ 	c #4CB3D0",
"% 	c #5CB9CF",
"& 	c #5DB9CF",
"* 	c #A1D7C9",
"= 	c #73C2CD",
"- 	c #57B7CF",
"; 	c #61BACF",
"> 	c #60BACF",
", 	c #8ACDCB",
"' 	c #A6D9C9",
") 	c #77C4CD",
"! 	c #74C2CD",
"~ 	c #6FC0CE",
"{ 	c #50B4D0",
"] 	c #62BBCF",
"^ 	c #A9DBC9",
"/ 	c #9CD5CA",
"( 	c #74C3CD",
"_ 	c #72C2CD",
": 	c #67BDCF",
"< 	c #53B6CF",
"[ 	c #54B5D0",
"} 	c #5EB9CF",
"| 	c #8FCFCB",
"1 	c #79C4CC",
"2 	c #75C3CD",
"3 	c #6ABECE",
"4 	c #61BBCF",
"5 	c #59B8CF",
"6 	c #51B4D0",
"7 	c #89CCCC",
"8 	c #86CACC",
"9 	c #7AC5CD",
"0 	c #4CADCB",
"a 	c #4CAECC",
"b 	c #4DAFCC",
"c 	c #5AB8CF",
"d 	c #61B9CE",
"e 	c #5AB8D0",
"f 	c #4BB2D0",
"g 	c #4CB2D0",
"h 	c #56B6CF",
"i 	c #8DCDCB",
"j 	c #95D1CB",
"k 	c #97D2CB",
"l 	c #93D0CB",
"m 	c #4AA5C4",
"n 	c #4AA6C5",
"o 	c #58B7CF",
"p 	c #51B5D0",
"q 	c #5FBACF",
"r 	c #49A0BF",
"s 	c #4CB0CD",
"t 	c #82C9CC",
"u 	c #96D1CB",
"v 	c #85CACD",
"w 	c #4CB2CF",
"x 	c #54B6D0",
"y 	c #4DB0CE",
"z 	c #4896B5",
"A 	c #499CBB",
"B 	c #4FB4D0",
"C 	c #8BCDCC",
"D 	c #84CACD",
"E 	c #499EBD",
"F 	c #4AA5C3",
"G 	c #4CB1CF",
"H 	c #60BBCF",
"I 	c #4897B6",
"J 	c #5EBACF",
"K 	c #71C1CD",
"L 	c #94D0CB",
"M 	c #4690B0",
"N 	c #4DB1CE",
"O 	c #4DB5D2",
"P 	c #55B6D0",
"Q 	c #4CB1CE",
"R 	c #499BBA",
"S 	c #8DCDCC",
"T 	c #8DCECC",
"U 	c #4387A7",
"V 	c #448BAB",
"W 	c #499FBD",
"X 	c #4284A4",
"Y 	c #4590AF",
"Z 	c #49A4C2",
"` 	c #4DB4D1",
" .	c #4CB3D1",
"..	c #5CB8CF",
"+.	c #499AB9",
"@.	c #4DAFCD",
"#.	c #55B6CF",
"$.	c #85CACC",
"%.	c #85CBCD",
"&.	c #4388A8",
"*.	c #499FBF",
"=.	c #4691B1",
"-.	c #438AAB",
";.	c #49A1BF",
">.	c #4DB0CD",
",.	c #5FB9CE",
"'.	c #5EB8CE",
").	c #55B0C9",
"!.	c #4EABC8",
"~.	c #4CABC9",
"{.	c #4898B7",
"].	c #499EBE",
"^.	c #65BCCE",
"/.	c #64BBCE",
"(.	c #64BCCE",
"_.	c #438AAA",
":.	c #4AA3C2",
"<.	c #4286A6",
"[.	c #458DAC",
"}.	c #4696B6",
"|.	c #489EBC",
"1.	c #4BA7C5",
"2.	c #5BB9CF",
"3.	c #4EB3D0",
"4.	c #4AB2D0",
"5.	c #79C5CD",
"6.	c #5FB9CF",
"7.	c #4591B1",
"8.	c #4AA0BF",
"9.	c #4AA2C2",
"0.	c #4CADCC",
"a.	c #4BAAC9",
"b.	c #4CACCA",
"c.	c #4DB4D0",
"d.	c #65BDCE",
"e.	c #7FC8CD",
"f.	c #489AB9",
"g.	c #4796B6",
"h.	c #4AA7C6",
"i.	c #4CAFCC",
"j.	c #4BACCA",
"k.	c #4AA4C3",
"l.	c #4793B3",
"m.	c #4BA8C6",
"n.	c #4BADCB",
"o.	c #4AA4C4",
"p.	c #5FBBCF",
"q.	c #86CBCD",
"r.	c #4795B4",
"s.	c #458EAD",
"t.	c #4BABC9",
"u.	c #4BACC9",
"v.	c #49A2C1",
"w.	c #4AA3C3",
"x.	c #4896B6",
"y.	c #4895B4",
"z.	c #4389A9",
"A.	c #4489A9",
"B.	c #4692B1",
"C.	c #458EAE",
"D.	c #458DAD",
"E.	c #4794B3",
"F.	c #4695B4",
"G.	c #458FAE",
"H.	c #4287A7",
"                                                                ",
"                                                                ",
"                                                                ",
"                                                                ",
"                                                                ",
"                      . . . .   + @ # #                         ",
"                  . . . . . $ % & * # # * = =                   ",
"              = - . . . . . . ; > , ' ' ) = = = =               ",
"            ! ~ $ . . . . . { > > ] ^ / = = = = = ( _           ",
"          $ : < . . . . . . [ > > } | 1 2 = 3 4 5 6 7 8 9       ",
"        0 a b 6 $ . . . . $ c > > ; d e { f g . . h i j k l     ",
"        m n . o } p . . . $ 4 > q p r s . . . . . ~ t u j j v   ",
"      m m w . . & > > h . 6 4 x . y z A . . . . B _ + k j C D   ",
"    E F G . . . B H > > q c . . . E I I G . . $ J = K j L D D   ",
"  I M r N O . . . x > > > ; P . Q I I I R . . . = = _ S T D D   ",
"  U V W X Y Z 0 `  ...> > > > { +.I I I I @.. #.! = = $.D %.%.  ",
"  &.*.n =.&.&.U -.;.>.,.,.'.).!.~.A {.I I ]. .^.= _ 3 > > /.(.  ",
"  _.m m :.<.U [.}.|.1.0 m m m . . . . N :.z 0 2 2.3.4.5.6.> >   ",
"  7.n 8.{.9.0.` ` . . . m m a.. . . . . . ` b.c.. . d.e.6.>     ",
"    f.I I g.m h.i.` . . n m . . . . . . j.m k.Q . f e.e.}       ",
"    I I I l.k.m m h.N . m.j.. . . . n.o.m m m m.. p.q.          ",
"        I r.s.m m m m m.t.s s i.u.v.:.:.:.w.k.k.                ",
"        I x.&.:.m m m m 8.&.&.&.y.&.&.&.&.&.z.                  ",
"        I I A.B.n m m m {.C.&.&.D.E.  &.                        ",
"          I C.U v.m m 8.I z U &.&.                              ",
"            l.&.F.n m I I I G.                                  ",
"              &.H.k.8.I I                                       ",
"                                                                ",
"                                                                ",
"                                                                ",
"                                                                ",
"                                                                "};
